<svg xmlns="http://www.w3.org/2000/svg" data-name="Layer 1" viewBox="100 300 1800 1400"><path d="M689.17 892.64v144.48l-99.12-144.48h-33.32v202.44h34.16v-148.4l101.92 148.4h30.52V892.64ZM852.41 950v94.36c-.28 18.2-14 28-30.24 28-14 0-28.84-7.56-28.84-26.88V950h-34.16v99.4c0 33.88 30.24 48.16 54 48.44 17.36 0 38.36-6.44 43.4-32.48l3.36 29.68h26l.84-145ZM1009.77 887v79.24c-11.48-13.44-26.32-18.76-42-18.76-37.52 0-59.08 30-59.08 75.88 0 47.32 23 74.48 60.76 74.48 25.76 0 38.92-13.72 45.64-31.36l3.36 28.56h25.48V887Zm0 150.64c0 19.32-14 35-32.76 35-19.6 0-35-14.28-35-50.12 0-34.72 14.84-49.56 35.84-49.56 14 0 25.48 7.28 31.92 25.48ZM1219.76 943.88l-40 16.24c-10.92-7.28-22.4-12-42-12-37.8 0-65.8 16.52-65.8 45.64 0 16.8 8.4 31.36 28 40.88-18.48 3.64-27.72 12.6-27.72 22.4 0 12.6 11.76 17.36 16.52 20.16-3.08 2-27.72 9-27.72 29.12 0 21.84 25.76 36.68 75.6 36.68 48.44 0 74.48-18.2 74.48-45.92 0-22.12-15.4-38.08-50.4-40.32-12.88-.84-24.08-1.4-30.52-1.68-18.48-1.4-26.32-2.52-26.32-7.28 0-3.64 4.48-7.28 19.6-7.84 3.08.28 8.68.56 11.76.56 42.28 0 63-22.4 63-47a50 50 0 0 0-3.92-17.08l25.2-4.48Zm-101.92 138.88 36.68 2.52c16.52 1.12 23.8 7.56 23.8 17.92 0 13.16-10.36 19.6-36.12 19.6-31.36 0-47.88-6.16-47.88-20.44 0-10.92 11.48-20.16 23.52-19.6m18.2-62.44c-19 0-30.24-9.8-30.24-25.76 0-16.52 11.48-27.44 30.24-27.44 19 0 30 10.92 30 27.44-.04 16.24-10.68 25.76-30.04 25.76ZM1362.28 1020.32c0-43.68-22.67-72.8-65.24-72.8-43.11 0-68.31 32.2-68.31 76.72 0 45.64 28.55 73.64 70.27 73.64 29.12 0 56.84-16.24 63-47h-31.08c-5.31 14.84-16.51 21.56-32.76 21.56-23.23 0-35.55-17.08-35.55-41.72h99.67Zm-99.67-10.92c0-18.48 11.75-37.24 34.43-37.24 22.41 0 33.32 16.24 33.32 37.24ZM1463.92 892.64h-72v202.44h34.72v-73.36h41.72c43.12 0 71.68-23.52 71.68-63.84.04-42.28-32.44-65.24-76.12-65.24m3.64 101.92h-41.16v-75h40c23.8 0 41.44 13.44 41.44 36.68.04 22.64-16.76 38.32-40.28 38.32M1618.76 947.52c-35.56 0-60.48 17.08-61.88 44.8h28.84c3.93-14.56 17.36-21 31.36-21 17.37-.28 28 8.4 28 24.36v9.8l-21.55.56c-50.41.56-72.53 16.8-72.53 48.72 0 27.44 20.45 43.12 48.45 43.12 20.43 0 36.67-6.44 47-28l2.8 25.2h28.56V993.72c.03-28-17.89-46.2-59.05-46.2m26.32 99.68c0 14-17.63 27.44-34.72 27.44-15.12 0-26.6-8.68-26.6-23.24 0-19.6 17.36-26.6 43.69-26.88l17.63-.28ZM1711.44 887v37h35.28v-37Zm.56 63.28v144.76h34.16V950.32ZM1871.6 887v79.24c-11.48-13.44-26.32-18.76-42-18.76-37.52 0-59.08 30-59.08 75.88 0 47.32 23 74.48 60.76 74.48 25.76 0 38.92-13.72 45.64-31.36l3.36 28.56h25.48V887Zm0 150.64c0 19.32-14 35-32.76 35-19.6 0-35-14.28-35-50.12 0-34.72 14.84-49.56 35.84-49.56 14 0 25.48 7.28 31.92 25.48Z"/><path d="M216 995.65a52 52 0 0 1 103.72 0h111.84a163.78 163.78 0 0 0-327.44 0Zm103.23 12.7a52 52 0 0 1-102.74 0H104.28a163.77 163.77 0 0 0 327.12 0Z" style="fill:#acdbef"/><path d="M216 995.65a52 52 0 0 1 103.72 0h86.81a138.73 138.73 0 0 0-277.33 0Zm103.23 12.7a52 52 0 0 1-102.74 0h-87.13a138.74 138.74 0 0 0 277 0Z" style="fill:#68add4"/><path d="M216 995.65a52 52 0 0 1 103.72 0h55.95a107.89 107.89 0 0 0-215.61 0Zm103.23 12.7a52 52 0 0 1-102.74 0h-56.24a107.92 107.92 0 0 0 215.19 0Z" style="fill:#0b6ca3"/><path d="M267.84 948a52 52 0 0 1 51.86 47.69h25.1a77.08 77.08 0 0 0-153.91 0H216A52 52 0 0 1 267.84 948m0 104.08a52 52 0 0 1-51.37-43.69h-25.25a77.08 77.08 0 0 0 153.25 0h-25.26a52 52 0 0 1-51.37 43.61Z" style="fill:#08517a"/></svg>